<svg width="100" height="128" viewBox="0 0 100 128" fill="none" xmlns="http://www.w3.org/2000/svg">
<path opacity="0.1" d="M7.54546 111L7.54546 96.8182L40.6818 66.1364C43.5 63.4091 45.8636 60.9545 47.7727 58.7727C49.7121 56.5909 51.1818 54.4545 52.1818 52.3636C53.1818 50.2424 53.6818 47.9545 53.6818 45.5C53.6818 42.7727 53.0606 40.4242 51.8182 38.4545C50.5758 36.4545 48.8788 34.9242 46.7273 33.8636C44.5758 32.7727 42.1364 32.2273 39.4091 32.2273C36.5606 32.2273 34.0758 32.803 31.9545 33.9545C29.8333 35.1061 28.197 36.7576 27.0455 38.9091C25.8939 41.0606 25.3182 43.6212 25.3182 46.5909L6.63636 46.5909C6.63636 40.5 8.01515 35.2121 10.7727 30.7273C13.5303 26.2424 17.3939 22.7727 22.3636 20.3182C27.3333 17.8636 33.0606 16.6364 39.5455 16.6364C46.2121 16.6364 52.0152 17.8182 56.9545 20.1818C61.9242 22.5151 65.7879 25.7576 68.5455 29.9091C71.303 34.0606 72.6818 38.8182 72.6818 44.1818C72.6818 47.697 71.9849 51.1667 70.5909 54.5909C69.2273 58.0152 66.7879 61.8182 63.2727 66C59.7576 70.1515 54.803 75.1364 48.4091 80.9545L34.8182 94.2727L34.8182 94.9091L73.9091 94.9091L73.9091 111L7.54546 111Z" fill="#00B9B6"/>
</svg>
