<svg width="284" height="48" viewBox="0 0 284 48" fill="none" xmlns="http://www.w3.org/2000/svg">
<rect width="284" height="48" rx="12" fill="white"/>
<path d="M20.352 24.7544L28.9433 30.8833C29.1615 31.0389 29.4298 31.0389 29.6478 30.8833C29.8658 30.728 30 30.4407 30 30.1296V17.8705C30 17.5594 29.8658 17.272 29.6478 17.1168C29.5388 17.0379 29.4171 17 29.2955 17C29.1739 17 29.0523 17.0391 28.9433 17.1168L20.352 23.2457C20.1335 23.4013 20 23.6886 20 23.9997C20 24.3109 20.134 24.5985 20.352 24.7544Z" fill="#00B9B6"/>
<path d="M57.446 31.179C56.696 31.179 56.0206 31.0298 55.4197 30.7315C54.8189 30.4332 54.3374 30.0241 53.9751 29.5043C53.6129 28.9844 53.4148 28.392 53.3807 27.7273H54.9148C54.9744 28.3196 55.2429 28.8097 55.7202 29.1974C56.2017 29.581 56.777 29.7727 57.446 29.7727C57.983 29.7727 58.4602 29.647 58.8778 29.3956C59.2997 29.1442 59.63 28.799 59.8686 28.3601C60.1115 27.9169 60.233 27.4162 60.233 26.858C60.233 26.2869 60.1072 25.7777 59.8558 25.3303C59.6087 24.8786 59.2678 24.5227 58.8331 24.2628C58.3984 24.0028 57.902 23.8707 57.3438 23.8665C56.9432 23.8622 56.532 23.924 56.1101 24.0518C55.6882 24.1754 55.3409 24.3352 55.0682 24.5312L53.5852 24.3523L54.3778 17.9091H61.179V19.3153H55.7074L55.2472 23.1761H55.3239C55.5923 22.9631 55.929 22.7862 56.3338 22.6456C56.7386 22.505 57.1605 22.4347 57.5994 22.4347C58.4006 22.4347 59.1143 22.6264 59.7408 23.0099C60.3714 23.3892 60.8658 23.9091 61.2237 24.5696C61.5859 25.2301 61.767 25.9844 61.767 26.8324C61.767 27.6676 61.5795 28.4134 61.2045 29.0696C60.8338 29.7216 60.3224 30.2372 59.6705 30.6165C59.0185 30.9915 58.277 31.179 57.446 31.179ZM68.5762 31.179C67.6131 31.179 66.7928 30.9169 66.1152 30.3928C65.4377 29.8643 64.9199 29.0994 64.562 28.098C64.204 27.0923 64.025 25.8778 64.025 24.4545C64.025 23.0398 64.204 21.8317 64.562 20.8303C64.9242 19.8246 65.4441 19.0575 66.1216 18.5291C66.8034 17.9964 67.6216 17.7301 68.5762 17.7301C69.5307 17.7301 70.3468 17.9964 71.0243 18.5291C71.7061 19.0575 72.226 19.8246 72.584 20.8303C72.9462 21.8317 73.1273 23.0398 73.1273 24.4545C73.1273 25.8778 72.9483 27.0923 72.5904 28.098C72.2324 29.0994 71.7147 29.8643 71.0371 30.3928C70.3596 30.9169 69.5392 31.179 68.5762 31.179ZM68.5762 29.7727C69.5307 29.7727 70.2722 29.3125 70.8006 28.392C71.329 27.4716 71.5932 26.1591 71.5932 24.4545C71.5932 23.321 71.4718 22.3558 71.2289 21.5589C70.9902 20.7621 70.6451 20.1548 70.1934 19.7372C69.7459 19.3196 69.2069 19.1108 68.5762 19.1108C67.6301 19.1108 66.8908 19.5774 66.3581 20.5107C65.8255 21.4396 65.5591 22.7543 65.5591 24.4545C65.5591 25.5881 65.6784 26.5511 65.9171 27.3438C66.1557 28.1364 66.4988 28.7393 66.9462 29.1527C67.3979 29.5661 67.9412 29.7727 68.5762 29.7727Z" fill="#333333"/>
<path d="M106.648 23.2456L98.0567 17.1167C97.8385 16.9611 97.5702 16.9611 97.3522 17.1167C97.1342 17.272 97 17.5593 97 17.8704V30.1295C97 30.4406 97.1342 30.728 97.3522 30.8832C97.4612 30.9621 97.5829 31 97.7045 31C97.8261 31 97.9477 30.9609 98.0567 30.8832L106.648 24.7543C106.866 24.5987 107 24.3114 107 24.0003C107 23.6891 106.866 23.4015 106.648 23.2456Z" fill="#00B9B6"/>
<path d="M132.381 31V21.1818H133.838V22.7159H133.966C134.17 22.1918 134.501 21.7848 134.957 21.495C135.413 21.201 135.96 21.054 136.599 21.054C137.247 21.054 137.786 21.201 138.217 21.495C138.651 21.7848 138.99 22.1918 139.233 22.7159H139.335C139.587 22.2088 139.964 21.8061 140.467 21.5078C140.969 21.2053 141.572 21.054 142.276 21.054C143.153 21.054 143.871 21.3288 144.43 21.8786C144.988 22.424 145.267 23.2741 145.267 24.429V31H143.759V24.429C143.759 23.7045 143.56 23.1868 143.164 22.8757C142.768 22.5646 142.301 22.4091 141.764 22.4091C141.074 22.4091 140.539 22.6179 140.16 23.0355C139.781 23.4489 139.591 23.973 139.591 24.608V31H138.057V24.2756C138.057 23.7173 137.876 23.2678 137.513 22.9268C137.151 22.5817 136.685 22.4091 136.114 22.4091C135.722 22.4091 135.355 22.5135 135.014 22.7223C134.678 22.9311 134.405 23.2209 134.196 23.5916C133.991 23.9581 133.889 24.3821 133.889 24.8636V31H132.381ZM148.025 31V21.1818H149.534V31H148.025ZM148.792 19.5455C148.498 19.5455 148.245 19.4453 148.032 19.245C147.823 19.0447 147.718 18.804 147.718 18.5227C147.718 18.2415 147.823 18.0007 148.032 17.8004C148.245 17.6001 148.498 17.5 148.792 17.5C149.086 17.5 149.338 17.6001 149.547 17.8004C149.76 18.0007 149.866 18.2415 149.866 18.5227C149.866 18.804 149.76 19.0447 149.547 19.245C149.338 19.4453 149.086 19.5455 148.792 19.5455ZM153.805 25.0938V31H152.297V21.1818H153.754V22.7159H153.882C154.112 22.2173 154.461 21.8168 154.93 21.5142C155.399 21.2074 156.004 21.054 156.746 21.054C157.41 21.054 157.992 21.1903 158.491 21.4631C158.989 21.7315 159.377 22.1406 159.654 22.6903C159.931 23.2358 160.069 23.9261 160.069 24.7614V31H158.561V24.8636C158.561 24.0923 158.361 23.4915 157.96 23.0611C157.559 22.6264 157.01 22.4091 156.311 22.4091C155.829 22.4091 155.399 22.5135 155.02 22.7223C154.645 22.9311 154.349 23.2358 154.131 23.6364C153.914 24.0369 153.805 24.5227 153.805 25.0938Z" fill="#AFAFAF"/>
<line x1="174.5" y1="9.5" x2="174.5" y2="38.5" stroke="#E0E0E0" stroke-linecap="round"/>
<path d="M187.355 31V29.8494L191.676 25.1193C192.183 24.5653 192.601 24.0838 192.929 23.6747C193.257 23.2614 193.5 22.8736 193.658 22.5114C193.82 22.1449 193.901 21.7614 193.901 21.3608C193.901 20.9006 193.79 20.5021 193.568 20.1655C193.351 19.8288 193.053 19.5689 192.673 19.3857C192.294 19.2024 191.868 19.1108 191.395 19.1108C190.892 19.1108 190.453 19.2152 190.078 19.424C189.707 19.6286 189.42 19.9162 189.215 20.2869C189.015 20.6577 188.915 21.0923 188.915 21.5909H187.406C187.406 20.8239 187.583 20.1506 187.937 19.571C188.29 18.9915 188.772 18.5398 189.381 18.2159C189.995 17.892 190.683 17.7301 191.446 17.7301C192.213 17.7301 192.893 17.892 193.485 18.2159C194.077 18.5398 194.542 18.9766 194.879 19.5263C195.215 20.076 195.384 20.6875 195.384 21.3608C195.384 21.8423 195.296 22.3132 195.121 22.7734C194.951 23.2294 194.653 23.7386 194.227 24.3011C193.805 24.8594 193.219 25.5412 192.469 26.3466L189.528 29.4915V29.5938H195.614V31H187.355ZM197.665 28.3153V27.0114L203.418 17.9091H204.364V19.929H203.725L199.379 26.8068V26.9091H207.126V28.3153H197.665ZM203.827 31V27.919V27.3118V17.9091H205.336V31H203.827ZM213.612 31.179C212.862 31.179 212.187 31.0298 211.586 30.7315C210.985 30.4332 210.503 30.0241 210.141 29.5043C209.779 28.9844 209.581 28.392 209.547 27.7273H211.081C211.14 28.3196 211.409 28.8097 211.886 29.1974C212.368 29.581 212.943 29.7727 213.612 29.7727C214.149 29.7727 214.626 29.647 215.044 29.3956C215.466 29.1442 215.796 28.799 216.035 28.3601C216.278 27.9169 216.399 27.4162 216.399 26.858C216.399 26.2869 216.273 25.7777 216.022 25.3303C215.775 24.8786 215.434 24.5227 214.999 24.2628C214.564 24.0028 214.068 23.8707 213.51 23.8665C213.109 23.8622 212.698 23.924 212.276 24.0518C211.854 24.1754 211.507 24.3352 211.234 24.5312L209.751 24.3523L210.544 17.9091H217.345V19.3153H211.873L211.413 23.1761H211.49C211.758 22.9631 212.095 22.7862 212.5 22.6456C212.905 22.505 213.327 22.4347 213.765 22.4347C214.567 22.4347 215.28 22.6264 215.907 23.0099C216.537 23.3892 217.032 23.9091 217.39 24.5696C217.752 25.2301 217.933 25.9844 217.933 26.8324C217.933 27.6676 217.746 28.4134 217.371 29.0696C217 29.7216 216.488 30.2372 215.836 30.6165C215.184 30.9915 214.443 31.179 213.612 31.179ZM224.742 31.179C223.779 31.179 222.959 30.9169 222.281 30.3928C221.604 29.8643 221.086 29.0994 220.728 28.098C220.37 27.0923 220.191 25.8778 220.191 24.4545C220.191 23.0398 220.37 21.8317 220.728 20.8303C221.09 19.8246 221.61 19.0575 222.288 18.5291C222.969 17.9964 223.788 17.7301 224.742 17.7301C225.697 17.7301 226.513 17.9964 227.19 18.5291C227.872 19.0575 228.392 19.8246 228.75 20.8303C229.112 21.8317 229.293 23.0398 229.293 24.4545C229.293 25.8778 229.114 27.0923 228.756 28.098C228.398 29.0994 227.881 29.8643 227.203 30.3928C226.526 30.9169 225.705 31.179 224.742 31.179ZM224.742 29.7727C225.697 29.7727 226.438 29.3125 226.967 28.392C227.495 27.4716 227.759 26.1591 227.759 24.4545C227.759 23.321 227.638 22.3558 227.395 21.5589C227.156 20.7621 226.811 20.1548 226.359 19.7372C225.912 19.3196 225.373 19.1108 224.742 19.1108C223.796 19.1108 223.057 19.5774 222.524 20.5107C221.991 21.4396 221.725 22.7543 221.725 24.4545C221.725 25.5881 221.844 26.5511 222.083 27.3438C222.322 28.1364 222.665 28.7393 223.112 29.1527C223.564 29.5661 224.107 29.7727 224.742 29.7727Z" fill="#0E0E0F"/>
<path d="M258.312 25.6818H251.665V24.2756H258.312C258.926 24.2756 259.433 24.169 259.834 23.956C260.234 23.7386 260.533 23.4446 260.729 23.0739C260.925 22.6989 261.023 22.2727 261.023 21.7955C261.023 21.3182 260.925 20.8942 260.729 20.5234C260.533 20.1484 260.234 19.8544 259.834 19.6413C259.433 19.424 258.926 19.3153 258.312 19.3153H255.321V31H253.736V17.9091H258.312C259.284 17.9091 260.085 18.0859 260.716 18.4396C261.347 18.7933 261.815 19.2642 262.122 19.8523C262.429 20.4403 262.582 21.0881 262.582 21.7955C262.582 22.5028 262.429 23.1506 262.122 23.7386C261.815 24.3267 261.347 24.7976 260.716 25.1513C260.085 25.505 259.284 25.6818 258.312 25.6818ZM258.21 26.9091V28.3153H251.665V26.9091H258.21Z" fill="#AFAFAF"/>
</svg>
