<svg width="100" height="128" viewBox="0 0 100 128" fill="none" xmlns="http://www.w3.org/2000/svg">
<path opacity="0.1" d="M41.9545 112.273C35.1667 112.273 29.1212 111.106 23.8182 108.773C18.5455 106.409 14.3788 103.167 11.3182 99.0455C8.28788 94.8939 6.72727 90.1061 6.63636 84.6818L26.4545 84.6818C26.5758 86.9545 27.3182 88.9545 28.6818 90.6818C30.0758 92.3788 31.9242 93.697 34.2273 94.6364C36.5303 95.5758 39.1212 96.0455 42 96.0455C45 96.0455 47.6515 95.5152 49.9545 94.4545C52.2576 93.3939 54.0606 91.9242 55.3636 90.0455C56.6667 88.1667 57.3182 86 57.3182 83.5455C57.3182 81.0606 56.6212 78.8636 55.2273 76.9545C53.8636 75.0151 51.8939 73.5 49.3182 72.4091C46.7727 71.3182 43.7424 70.7727 40.2273 70.7727L31.5455 70.7727L31.5455 56.3182L40.2273 56.3182C43.197 56.3182 45.8182 55.803 48.0909 54.7727C50.3939 53.7424 52.1818 52.3182 53.4545 50.5C54.7273 48.6515 55.3636 46.5 55.3636 44.0455C55.3636 41.7121 54.803 39.6667 53.6818 37.9091C52.5909 36.1212 51.0455 34.7273 49.0455 33.7273C47.0758 32.7273 44.7727 32.2273 42.1364 32.2273C39.4697 32.2273 37.0303 32.7121 34.8182 33.6818C32.6061 34.6212 30.8333 35.9697 29.5 37.7273C28.1667 39.4848 27.4545 41.5455 27.3636 43.9091L8.5 43.9091C8.59091 38.5455 10.1212 33.8182 13.0909 29.7273C16.0606 25.6364 20.0606 22.4394 25.0909 20.1364C30.1515 17.803 35.8636 16.6364 42.2273 16.6364C48.6515 16.6364 54.2727 17.803 59.0909 20.1364C63.9091 22.4697 67.6515 25.6212 70.3182 29.5909C73.0152 33.5303 74.3485 37.9545 74.3182 42.8636C74.3485 48.0758 72.7273 52.4242 69.4545 55.9091C66.2121 59.3939 61.9849 61.6061 56.7727 62.5455L56.7727 63.2727C63.6212 64.1515 68.8333 66.5303 72.4091 70.4091C76.0152 74.2576 77.803 79.0758 77.7727 84.8636C77.803 90.1667 76.2727 94.8788 73.1818 99C70.1212 103.121 65.8939 106.364 60.5 108.727C55.1061 111.091 48.9242 112.273 41.9545 112.273Z" fill="#00B9B6"/>
</svg>
