<svg width="12" height="12" viewBox="0 0 12 12" fill="none" xmlns="http://www.w3.org/2000/svg">
<path d="M11.8166 4.59664C11.7764 4.46691 11.6695 4.37236 11.5407 4.35278L7.92399 3.80182L6.3065 0.366223C6.24894 0.243922 6.13011 0.166504 6.00002 0.166504C5.86991 0.166504 5.7511 0.243922 5.69352 0.366223L4.07597 3.80182L0.459314 4.35278C0.330594 4.37236 0.223612 4.46691 0.183417 4.59662C0.143199 4.72635 0.17674 4.86874 0.269914 4.96393L2.88688 7.63817L2.26919 11.4143C2.24718 11.5487 2.29991 11.6846 2.40516 11.7648C2.4647 11.8101 2.53522 11.8332 2.60609 11.8332C2.6605 11.8332 2.7151 11.8196 2.76509 11.792L6 10.0091L9.23478 11.792C9.34996 11.8555 9.48948 11.8449 9.59473 11.7647C9.69998 11.6846 9.75273 11.5487 9.73074 11.4143L9.11285 7.63817L11.7301 4.9639C11.8233 4.86874 11.8568 4.72635 11.8166 4.59664Z" fill="#FFA800"/>
</svg>
