<svg width="272" height="35" viewBox="0 0 272 35" fill="none" xmlns="http://www.w3.org/2000/svg">
<rect width="35" height="35" rx="17.5" fill="#00B9B6" fill-opacity="0.1"/>
<path d="M19.8531 10.9091L19.8531 24L17.0853 24L17.0853 13.5362L17.0086 13.5362L14.0107 15.4155L14.0107 12.9609L17.2515 10.9091L19.8531 10.9091Z" fill="#00B9B6"/>
<line x1="41" y1="16.5" x2="69" y2="16.5" stroke="#00B9B6" stroke-opacity="0.25" stroke-width="2" stroke-linecap="round"/>
<rect x="75" width="35" height="35" rx="17.5" fill="#00B9B6"/>
<path d="M87.3921 24L87.3921 22.0057L92.0519 17.6911C92.4482 17.3075 92.7806 16.9624 93.0491 16.6555C93.3218 16.3487 93.5285 16.0483 93.6691 15.7543C93.8097 15.456 93.8801 15.1342 93.8801 14.7891C93.8801 14.4055 93.7927 14.0753 93.618 13.7983C93.4433 13.517 93.2046 13.3018 92.9021 13.1527C92.5995 12.9993 92.2565 12.9226 91.873 12.9226C91.4724 12.9226 91.123 13.0036 90.8247 13.1655C90.5264 13.3274 90.2963 13.5597 90.1343 13.8622C89.9724 14.1648 89.8914 14.5249 89.8914 14.9425L87.2643 14.9425C87.2643 14.0859 87.4582 13.3423 87.846 12.7116C88.2338 12.081 88.7771 11.593 89.4759 11.2479C90.1748 10.9027 90.9802 10.7301 91.8921 10.7301C92.8296 10.7301 93.6457 10.8963 94.3403 11.2287C95.0392 11.5568 95.5825 12.0128 95.9703 12.5966C96.358 13.1804 96.5519 13.8494 96.5519 14.6037C96.5519 15.098 96.4539 15.5859 96.2579 16.0675C96.0661 16.549 95.7231 17.0838 95.2288 17.6719C94.7345 18.2557 94.0377 18.9567 93.1386 19.7749L91.2274 21.6477L91.2274 21.7372L96.7245 21.7372L96.7245 24L87.3921 24Z" fill="white"/>
<line x1="116" y1="16.5" x2="144" y2="16.5" stroke="#00B9B6" stroke-opacity="0.25" stroke-width="2" stroke-linecap="round"/>
<rect x="150" width="35" height="35" rx="17.5" fill="#00B9B6" fill-opacity="0.1"/>
<path d="M166.967 24.179C166.013 24.179 165.163 24.0149 164.417 23.6868C163.675 23.3544 163.089 22.8984 162.659 22.3189C162.233 21.7351 162.013 21.0618 162.001 20.299L164.788 20.299C164.805 20.6186 164.909 20.8999 165.101 21.1428C165.297 21.3814 165.557 21.5668 165.881 21.6989C166.204 21.831 166.569 21.897 166.974 21.897C167.396 21.897 167.768 21.8224 168.092 21.6733C168.416 21.5241 168.67 21.3175 168.853 21.0533C169.036 20.7891 169.128 20.4844 169.128 20.1392C169.128 19.7898 169.03 19.4808 168.834 19.2124C168.642 18.9396 168.365 18.7266 168.003 18.5732C167.645 18.4197 167.219 18.343 166.724 18.343L165.503 18.343L165.503 16.3104L166.724 16.3104C167.142 16.3104 167.511 16.2379 167.83 16.093C168.154 15.9482 168.405 15.7479 168.584 15.4922C168.763 15.2322 168.853 14.9297 168.853 14.5845C168.853 14.2564 168.774 13.9687 168.616 13.7216C168.463 13.4702 168.246 13.2741 167.964 13.1335C167.687 12.9929 167.364 12.9226 166.993 12.9226C166.618 12.9226 166.275 12.9908 165.964 13.1271C165.653 13.2592 165.403 13.4489 165.216 13.696C165.028 13.9432 164.928 14.233 164.915 14.5653L162.263 14.5653C162.275 13.8111 162.491 13.1463 162.908 12.571C163.326 11.9957 163.888 11.5462 164.596 11.2223C165.307 10.8942 166.111 10.7301 167.006 10.7301C167.909 10.7301 168.699 10.8942 169.377 11.2223C170.055 11.5504 170.581 11.9936 170.956 12.5518C171.335 13.1058 171.523 13.728 171.518 14.4183C171.523 15.1513 171.295 15.7628 170.834 16.2528C170.378 16.7429 169.784 17.054 169.051 17.1861L169.051 17.2884C170.014 17.4119 170.747 17.7464 171.25 18.2919C171.757 18.8331 172.008 19.5107 172.004 20.3246C172.008 21.0703 171.793 21.733 171.359 22.3125C170.928 22.892 170.334 23.348 169.575 23.6804C168.817 24.0128 167.947 24.179 166.967 24.179Z" fill="#00B9B6"/>
<line x1="191" y1="16.5" x2="219" y2="16.5" stroke="#00B9B6" stroke-opacity="0.25" stroke-width="2" stroke-linecap="round"/>
<rect x="225" width="35" height="35" rx="17.5" fill="#00B9B6" fill-opacity="0.1"/>
<path d="M237.263 21.6989L237.263 19.5192L242.729 10.9091L244.608 10.9091L244.608 13.9261L243.496 13.9261L240.05 19.3786L240.05 19.4808L247.817 19.4808L247.817 21.6989L237.263 21.6989ZM243.547 24L243.547 21.0341L243.598 20.0689L243.598 10.9091L246.193 10.9091L246.193 24L243.547 24Z" fill="#00B9B6"/>
</svg>
